<svg xmlns="http://www.w3.org/2000/svg" width="190.89703pt" height="225pt" fill-rule="evenodd" viewBox="0 0 190.89703 225"><path d="M886.122 449.7c-34.59-8.59-72.473-10.07-87.979-10.07-15.509 0-53.387 1.48-87.98 10.07l.002-.02c-.028.01-.057.01-.087.02-1.484 8.75-2.156 15.81-2.156 15.81 2.51 3.7 6.497 8.11 10.196 11.16 40.777-10.79 79.76-9.89 79.76-9.89s38.968-.9 79.746 9.89h.012c2.89-2.03 7.656-7.05 10.654-11.16 0 0-.664-6.96-2.168-15.81z" style="fill:#fff;stroke:none" transform="matrix(1.05838 0 0 1.05838 -749.247 -319.163)"/><path d="M884.13 435.32c-1.655-16.47-2.975-48.64 1.355-104.5 0 0-50.123 9.08-87.355-29.26h-.049c-37.23 38.34-87.36 29.26-87.36 29.26 4.318 55.59 3.026 87.72 1.382 104.26.39 0 .805-.01 1.204-.02a387.974 387.974 0 0 1 84.836-9.75c25.41.1 54.565 2.72 85.987 10.01z" style="fill:#ccc;stroke:none" transform="matrix(1.05838 0 0 1.05838 -749.247 -319.163)"/><path d="M797.878 466.78s-38.983-.9-79.76 9.89c0 0 37.776 29.38 79.76 37.48 41.972-8.1 79.754-37.48 79.754-37.48-40.784-10.79-79.754-9.89-79.754-9.89zM717.146 456.58l6.442-1.57.447 1.83-4.12 1 .696 2.86 3.917-.96.45 1.82-3.92.96 1.242 5.08-2.324.57zM725.786 457.74l2.237-.49 1.893 8.59-2.238.49zm-.813-3.7 2.235-.5.47 2.14-2.234.49zM730.136 456.8l1.992-.4.392 1.96.033-.01c-.056-.83.588-2.37 1.927-2.64.22-.04.457-.08.703-.07l.452 2.27c-.224-.08-.637-.07-1.043.01-1.824.37-1.37 2.65-1.119 3.89l.64 3.16-2.25.45zM738.204 458.83c-.096-1.18.387-2.17 1.648-2.39 1.266-.22 1.935.63 2.194 1.72zm5.86 1.92c-.76.63-1.633 1.19-2.728 1.38-1.396.24-2.51-.37-2.857-1.75l5.996-1.05c-.536-3.03-1.828-5.08-5.044-4.51-2.692.47-3.663 2.77-3.22 5.28.495 2.84 2.452 4.2 5.318 3.7 1.21-.21 2.113-.61 2.855-1.21zM756.334 459.07c-.465.58-1.183.88-1.982.98-1.096.15-2.089-.45-2.219-1.49-.126-.93.465-1.57 1.194-2.08zm-2.773-4.9c-.517-.4-1.249-.87-1.33-1.53-.114-.86.514-1.34 1.193-1.43.68-.09 1.354.22 1.462 1.05.09.7-.77 1.53-1.325 1.91zm1.482 1.05c1.192-.91 2.095-1.8 1.885-3.43-.248-1.92-2.093-2.45-3.755-2.24-1.657.22-3.476 1.36-3.244 3.16.171 1.35.987 1.89 2.011 2.64-1.78 1.03-2.258 2.15-2.076 3.57.29 2.22 2.325 3.2 4.665 2.9 1.174-.15 2.338-.71 3.061-1.67l.932.95 2.917-.38-2.428-2.09c.805-1.26 1.112-2.73.987-4.25l-2.067.26c.085.92.077 1.94-.415 2.68zM767.98 450.02l.784-.06c1.188-.1 2.528-.09 2.651 1.34.123 1.48-1.205 1.76-2.385 1.86l-.779.06zm-1.544 10.22 2.387-.2-.416-4.94.766-.07c1.003-.08 1.34.24 1.757 1.09l1.741 3.59 2.658-.22-2.3-4.48c-.284-.51-.712-1.13-1.36-1.13l-.008-.03c1.498-.33 2.336-1.56 2.223-2.97-.278-3.3-3.32-2.96-5.873-2.74l-2.57.21zM777.67 454.09c.032-1.18.634-2.11 1.911-2.18 1.281-.07 1.848.86 1.973 1.97zm5.587 2.6c-.83.53-1.758.99-2.866 1.05-1.418.08-2.45-.67-2.63-2.07l6.068-.35c-.174-3.07-1.217-5.25-4.479-5.07-2.73.15-3.96 2.33-3.818 4.87.164 2.88 1.945 4.46 4.848 4.3 1.228-.07 2.168-.36 2.982-.87zM790.341 451.86c-.707-.22-1.223-.34-2.06-.32-.618.02-1.347.26-1.32 1.01.042 1.41 3.993.4 4.093 3.57.066 2.05-1.74 2.93-3.602 2.99-.869.03-1.766-.1-2.608-.3l.077-1.88c.73.34 1.488.53 2.277.51.576-.02 1.494-.27 1.467-1.12-.05-1.73-3.996-.43-4.098-3.61-.053-1.89 1.576-2.78 3.371-2.84 1.078-.03 1.783.12 2.504.25zM798.032 451.84c-.41-.18-.853-.31-1.555-.31-1.423 0-2.32 1.13-2.32 2.79.008 1.63.783 2.86 2.39 2.86.647 0 1.364-.24 1.758-.41l.11 1.9c-.666.2-1.352.29-2.293.29-2.883.01-4.346-1.95-4.352-4.63-.009-2.55 1.487-4.57 4.24-4.58.92 0 1.584.1 2.22.28zM807.538 458.85l-2.172-.03.02-1.2h-.036c-.714.84-1.71 1.37-2.91 1.35-2.082-.03-2.967-1.51-2.935-3.49l.084-5.56 2.291.04-.075 4.7c-.015 1.07-.02 2.52 1.448 2.55 1.658.03 2.046-1.76 2.062-2.89l.065-4.31 2.287.03zM811.354 453.75c.157-1.18.848-2.04 2.131-1.97 1.281.05 1.75 1.04 1.762 2.15zm5.291 3.15c-.879.44-1.85.8-2.963.76-1.416-.07-2.369-.92-2.398-2.34l6.074.28c.15-3.07-.666-5.35-3.929-5.5-2.733-.13-4.182 1.9-4.3 4.44-.138 2.89 1.47 4.64 4.378 4.78 1.226.06 2.193-.13 3.05-.56zM830.614 450.59a6.297 6.297 0 0 0-2.373-.73c-.82-.07-1.902.2-2.018 1.49-.183 2.07 5.104 1.65 4.754 5.64-.232 2.6-2.379 3.41-4.777 3.2-1.295-.12-1.859-.34-3.008-.73l.406-2.13c.782.52 1.694.89 2.627.97.905.08 2.155-.27 2.248-1.34.201-2.27-5.09-1.79-4.746-5.73.237-2.65 2.38-3.44 4.477-3.25 1.021.08 1.96.31 2.803.67zM834.77 455.53c.235-1.16.985-1.97 2.258-1.82 1.27.14 1.67 1.16 1.611 2.27zm5.065 3.51c-.905.38-1.905.67-3.004.55-1.412-.17-2.3-1.08-2.244-2.5l6.043.7c.357-3.06-.3-5.39-3.545-5.76-2.717-.32-4.303 1.62-4.59 4.15-.338 2.87 1.15 4.73 4.04 5.06 1.22.14 2.194.01 3.085-.35zM843.186 452.99l2.012.28-.275 1.98.033.01c.215-.8 1.338-2.04 2.693-1.85.223.03.46.06.682.16l-.317 2.29c-.185-.15-.585-.28-.99-.33-1.845-.26-2.166 2.05-2.342 3.3l-.45 3.2-2.266-.32zM848.9 453.78l2.427.4 1.115 6.69h.031l3.137-5.98 2.26.38-4.643 8.15-2.545-.43zM859.415 455.58l2.248.43-1.643 8.65-2.248-.43zm.705-3.73 2.25.43-.406 2.15-2.25-.43zM869.341 459.53c-.364-.27-.766-.49-1.452-.64-1.39-.29-2.507.62-2.855 2.24-.336 1.59.16 2.97 1.73 3.3.637.14 1.391.06 1.811-.03l-.3 1.88c-.692.06-1.378 0-2.296-.19-2.828-.6-3.838-2.83-3.28-5.46.526-2.48 2.411-4.15 5.108-3.58.9.2 1.534.44 2.11.75zM872.485 461.95c.383-1.13 1.221-1.83 2.467-1.53 1.244.31 1.515 1.36 1.32 2.46zm4.584 4.11c-.94.26-1.97.44-3.045.17-1.38-.34-2.15-1.35-1.914-2.76l5.906 1.45c.737-2.99.371-5.38-2.8-6.16-2.657-.64-4.463 1.07-5.069 3.54-.693 2.81.555 4.84 3.38 5.53 1.187.3 2.177.29 3.103.04z" style="fill:#005495;stroke:none" transform="matrix(1.05838 0 0 1.05838 -749.247 -319.163)"/><path d="M782.802 384.81h-1.622v-2.41a4.89 4.89 0 0 0-4.882-4.89h-3.676a3.45 3.45 0 0 0-3.446 3.45v9.97l-8.348.04v-3.82c0-4.87-1.567-6.89-2.237-7.53a3.464 3.464 0 0 0-2.38-.95h-4.978c-1.008 0-1.89.52-2.508 1.31a3.331 3.331 0 0 0-1.762-.51h-7.362c-.409-.87-.839-1.42-1.146-1.72a3.447 3.447 0 0 0-2.392-.97h-5.315c-1.316 0-2.408.87-2.99 2.04-.102.2-.092.43-.146.65h-6.114a3.444 3.444 0 0 0-3.443 3.44v3.76c0 .7.254 1.31.61 1.85a3.43 3.43 0 0 0-1.038 2.46v1.52c-1.796.12-3.22 1.59-3.22 3.42v3.76c0 1.9 1.541 3.44 3.445 3.44h4.281a10.293 10.293 0 0 0-1.794 5.83c0 6.57 5.97 11.51 13.892 11.51 7.921 0 13.897-4.94 13.897-11.51 0-2.15-.649-4.13-1.792-5.83h4.266a3.44 3.44 0 0 0 3.217-2.23c.043.02.078.04.118.06v10.19c0 4.61 3.753 8.35 8.365 8.35h15.435c1.9 0 3.443-1.54 3.443-3.44v-20.61h1.622a3.441 3.441 0 0 0 3.443-3.44v-3.75c0-1.9-1.54-3.44-3.443-3.44zm-48.57 24.98c-1.28 0-1.922-.68-1.929-.83v-.01c.041-.2.714-.82 1.928-.82 1.228 0 1.89.63 1.932.83-.025.17-.687.83-1.932.83zm34.944-.93h-3.23v-.98h3.23v.98z" style="fill:#fff;stroke:none" transform="matrix(1.05838 0 0 1.05838 -749.247 -319.163)"/><path d="M346.402 1191.2h.069-.069zM366.389 1191.2h.07-.07zM366.389 1191.2h-16.178c-.57 0-1.119.19-1.613.46-.635-.34-1.469-.47-2.196-.46h-16.177c-1.307 0-2.569.79-3.125 1.98l-1.516 3.2c-.475 1.03-.465 2.18.207 3.25.5.79 1.332 1.23 2.232 1.41l-10.912 26.62a3.384 3.384 0 0 0 3.129 4.66h14.985c.978 0 1.88-.43 2.505-1.14.641.71 1.53 1.14 2.497 1.14h14.986c1.367 0 2.594-.82 3.123-2.08l7.014-16.76c1.779 3.35 6.156 5.45 10.627 5.15l-5.227 8.61a3.37 3.37 0 0 0-.068 3.42 3.376 3.376 0 0 0 2.949 1.73h17.078c1.174 0 2.254-.6 2.873-1.6l20.678-33.71c3.01-4.6 6.715-15.19-1.295-21.6-5.568-4.83-16.28-5.33-29.225 2.38-5.912 3.25-11.262 7.98-15.363 13.64a7.894 7.894 0 0 0-1.988-.3z" style="fill:#fff;stroke:none" transform="matrix(1.05838 0 0 1.05838 -258.834 -1179.496)"/><path d="M855.58 413.7H838.49l-1.496 2.43h17.078z" style="fill:#e21c2a;stroke:none" transform="matrix(1.05838 0 0 1.05838 -749.247 -319.163)"/><path d="M736.063 380.22s.671.65.994 2.69h9.906v3.76h-9.654c1.206 2.42 5.254 4.31 9.207 4.31h.876v3.74h-.876c-4.875 0-10.325-1.77-12.285-4.09-1.972 2.32-7.412 4.09-12.284 4.09h-.88v-3.74h.88c3.944 0 7.993-1.89 9.198-4.31h-9.647v-3.76h10.13c-.284-2.04-.88-2.69-.88-2.69zM750.602 399.68v-3.76h-32.75v3.76h13.816v1.43c-4.823.84-7.886 4.04-7.886 7.84 0 4.46 4.167 8.07 10.45 8.07 6.278 0 10.453-3.61 10.453-8.07 0-3.81-3.07-7-7.893-7.84v-1.43h13.81m-10.993 9.27c0 2.37-2.415 4.28-5.378 4.28-2.97 0-5.377-1.91-5.377-4.28 0-2.35 2.407-4.26 5.377-4.26 2.963 0 5.378 1.91 5.378 4.26zM777.737 388.25v-5.85c0-.8-.652-1.44-1.439-1.44h-3.676v12.64h-.008c-.713.33-1.744.81-4.635.81h-9.16c-.795 0-1.436-.64-1.436-1.43v-5.83c0-3.92-1.172-5.04-1.172-5.04h-4.978s1.036 1.12 1.036 5.04v6.1c0 2.71 2.194 4.91 4.905 4.91h8.936c2.701 0 4.783-.24 6.504-.93l.008-.01v2.09h5.115V392h5.065v-3.75zM757.383 411.14c0 2.7 2.197 4.91 4.92 4.91h15.434v-15.37h-20.354v10.46m5.112-6.71h10.127v7.87h-8.684a1.44 1.44 0 0 1-1.443-1.44z" style="fill:#005495;stroke:none" transform="matrix(1.05838 0 0 1.05838 -749.247 -319.163)"/><path d="M860.272 405.95h-17.086l-1.492 2.43h17.072zM857.923 409.79h-17.088l-1.489 2.44h17.077zM811.602 382.97c-.36-.81-1.064-1.33-1.76-1.27H793.52l-1.496 3.24 3.473.02c.226.04.418.2.502.42.09.22.06.47-.075.67l-7.275 17.68h15.113l7.795-18.72c.196-.51.356-1.3.045-2.04zM831.591 382.97c-.36-.81-1.069-1.33-1.758-1.27H813.51l-1.495 3.24 3.47.02c.226.04.42.2.503.42.088.22.06.47-.074.67l-7.276 17.68h15.112l7.797-18.72c.2-.51.353-1.3.045-2.04zM801.997 407.92l1.121-2.66h-15.096l-1.088 2.66zM783.604 416.06h14.985l1.125-2.69H784.7zM786.376 409.35l-1.094 2.64h14.986l1.121-2.64zM821.985 407.92l1.12-2.66h-15.096l-1.088 2.66zM803.591 416.06h14.986l1.121-2.69h-15.012zM806.364 409.35l-1.098 2.64h14.987l1.123-2.64z" style="fill:#e21c2a;stroke:none" transform="matrix(1.05838 0 0 1.05838 -749.247 -319.163)"/><path d="M874.216 365.24c-4.887-4.24-14.309-3.95-25.379 2.64-5.612 3.09-9.39 6.41-14.362 12.73-3.097 3.94-7.13 14.19-1.67 19.81 4.012 2.99 8.241 2.14 13.385.78l-2.213 3.57 17.346-.02 13.398-22.29s7.22-11.03-.505-17.22z" style="fill:#e21c2a;stroke:none" transform="matrix(1.05838 0 0 1.05838 -749.247 -319.163)"/><path d="m851.11 389.95-.625 4.53v.04l7.766-12.65s.023-.03.064-.09c0 0 .002-.01.008-.01 0 0 0-.01.008-.01.385-.58 2.074-3.41-.352-4.93 0 0-1.006-.64-2.843-.13-.934.23-2.059.84-3.014 1.45-.547.31-1.073.67-1.568 1.07-.079.06-.477.38-.477.38h.008c-2.006 1.62-4.043 4.11-4.449 6.37h-.002s-.049.2-.086.51c-.002.04-.008.08-.01.13-.127 1.42.035 5.66 5.572 3.34z" style="fill:#fff;stroke:none" transform="matrix(1.05838 0 0 1.05838 -749.247 -319.163)"/><path d="M291.081 1144.46c7.653 4.53 15.017-2.02 14.53-9.39-6.125 2.82-12.177 4.84-17.942 6.28.89 1.19 1.97 2.26 3.412 3.11z" style="fill:#77b72d;stroke:none" transform="matrix(1.05838 0 0 1.05838 -258.834 -1179.496)"/><path d="M329.049 1119.8c3.07 4.87 2.146 10.75 7.203 14.3 3.621 2.54 9.584.75 11.701-3.06a8.64 8.64 0 0 0 1.096-4.45 97.978 97.978 0 0 1-14.283-12.15h-.049a98.885 98.885 0 0 1-5.652 5.34l-.003.01c-.007 0-.011.01-.013.01z" style="fill:#0099d2;stroke:none" transform="matrix(1.05838 0 0 1.05838 -258.834 -1179.496)"/><path d="M266.857 1163.48c1.648 8.16-2.412 12.85-6.795 15.88-1.843 1.26-1.237 1.55.78 1.17 2.338-.44 23.133-2.54 22.152-16.89-.862-12.67-18.514-11.94-16.137-.16zM261.893 1153.86c.276.21 2.476 1.91 1.036-.99-1.665-3.33-2.064-5.92-1.94-8.24-3.142 0-5.843-.12-7.996-.29 3.323 5.43 8.213 8.97 8.9 9.52z" style="fill:#f49418;stroke:none" transform="matrix(1.05838 0 0 1.05838 -258.834 -1179.496)"/><path d="M306 1142.88c-1.168 1.09-.266 1.14.713.81 10.521-3.52 16.121-7.96 18.912-11.35 2.932-3.57 2.756-7.65 1.096-10.55a95.87 95.87 0 0 1-16.393 10.93c.102 3.22-.408 6.52-4.328 10.16z" style="fill:#eb5f27;stroke:none" transform="matrix(1.05838 0 0 1.05838 -258.834 -1179.496)"/><path d="M294.174 1152.34c-2.248 11.86-9.356 13.02-10.118 21.95-1.155 13.34 19.936 12.1 19.602 1.08-.25-8.36-7.292-10.74-8.442-22.86-.086-.96-.929-.74-1.042-.17z" style="fill:#0099d2;stroke:none" transform="matrix(1.05838 0 0 1.05838 -258.834 -1179.496)"/><path d="M327.31 1137.59c-9.716 1.41-8.617 8.55-25.781 11.44-1.4.23-1.031 1.1-.078 1.17 16.237 1.13 21.026 10.28 29 8.79 13.018-2.43 10.197-23.35-3.141-21.4z" style="fill:#ba68a2;stroke:none" transform="matrix(1.05838 0 0 1.05838 -258.834 -1179.496)"/><path d="M320.232 1160.02c-7.548-6.19-10.968-.2-19.312-5.92-1.219-.83-1.84-.16-.799.91 6.385 6.51 2.682 14.55 7.744 18.66 9.535 7.76 21.25-6.37 12.367-13.65zM263.772 1164.63c-1.632-7.22-9.642-9.33-14.062-20.6-1.518-.18-2.353-.33-2.353-.33.97 12.41 1.648 23.65 2.111 33.81 7.28 1.61 16.529-3.05 14.304-12.88z" style="fill:#eb5f27;stroke:none" transform="matrix(1.05838 0 0 1.05838 -258.834 -1179.496)"/><path d="M266.952 1149.6c7.444 5.44 12.254-2.75 20.855 7.2 1.417 1.63 1.968 1.08 1.153-.85-1.957-4.62-2.204-9.6-4.016-13.96a111.957 111.957 0 0 1-21.049 2.6c.383 1.89 1.349 3.67 3.057 5.01z" style="fill:#ba68a2;stroke:none" transform="matrix(1.05838 0 0 1.05838 -258.834 -1179.496)"/><path d="M296.206 1288.96c-4.244 0-7.091 2.76-7.091 6.87 0 4.03 2.606 6.52 6.8 6.52 1.425 0 2.651-.26 3.239-.52-.029-.15-.35-1.92-.39-2.14-.641.24-1.564.4-2.422.4-2.663 0-4.316-1.69-4.316-4.41 0-2.77 1.645-4.49 4.298-4.49.667 0 1.225.09 1.687.21l-.007-.01c.6.15.867-.2.962-.55.151-.57.335-1.25.354-1.34-.536-.26-1.631-.54-3.114-.54zM340.441 1293.51c0-.39-.326-.72-.724-.72h-1.57l-.096 1.14s-.666-1.35-2.764-1.35c-2.453 0-4.234 2.08-4.234 4.93 0 2.68 1.621 4.55 3.937 4.55 1.914 0 2.735-1.23 2.735-1.23 0 1.92-.323 3.35-2.596 3.35-1.08 0-2.082-.34-2.703-.67-.063.22-.491 1.88-.531 2.05.816.42 2.045.67 3.31.67 3.533 0 5.236-1.61 5.236-5.37zm-2.753 4.47c0 .9-.376 2.11-1.799 2.11-1.221 0-2.045-1.07-2.045-2.65 0-1.7.832-2.83 2.066-2.83 1.358 0 1.778 1.24 1.778 1.97zM356.059 1292.58c-1.883 0-3.153.58-3.588.81.047.14.427 1.46.486 1.68a5.624 5.624 0 0 1 2.576-.65c1.389 0 1.936.65 1.85 1.56-3.19 0-5.615.97-5.615 3.55 0 1.4 1.023 2.82 2.984 2.82 1.893 0 2.887-1.17 2.887-1.17s.15.81.173.96h2.321v-5.54c0-2.67-1.371-4.02-4.074-4.02zm1.421 6.19c0 1.01-.775 1.71-1.714 1.71-.789 0-1.284-.47-1.284-1.24 0-1.26 1.317-1.61 2.998-1.61zM306.172 1292.58c-2 0-2.869 1.37-2.869 1.37v-2.76c0-2.12-.629-2.72-.629-2.72h-2.676s.555.6.555 2.72v10.95h2.75v-5.56c0-.76.484-1.82 1.697-1.82.756 0 1.656.39 1.656 2.23v5.15h2.754v-5.47c0-2.6-1.178-4.09-3.238-4.09zM318.922 1292.79h-2.029v5.59c0 .88-.629 1.79-1.713 1.79-.739 0-1.623-.41-1.623-2.34v-2.32c0-2.12-.629-2.72-.629-2.72h-2.678s.555.6.555 2.72v2.79c0 2.61 1.154 4.05 3.254 4.05 2.236 0 3.152-1.56 3.152-1.56l.139 1.35h2.295v-8.63c0-.39-.325-.72-.723-.72zM326.734 1292.58a3.594 3.594 0 0 0-2.916 1.47c-.183-.94-.506-1.26-.506-1.26h-2.671s.55.6.55 2.72v6.63h2.752v-5.4c0-.85.467-1.98 1.737-1.98 1.062 0 1.619.75 1.619 2.19v5.19h2.754v-5.54c0-2.52-1.241-4.02-3.319-4.02zM347.533 1292.58a3.612 3.612 0 0 0-2.922 1.47c-.185-.94-.5-1.26-.5-1.26h-2.677s.552.6.552 2.72v6.63h2.756v-5.4c0-.85.467-1.98 1.733-1.98 1.058 0 1.617.75 1.617 2.19v5.19h2.752v-5.54c0-2.52-1.241-4.02-3.311-4.02zM372.809 1292.58c-2.395 0-3.075 1.65-3.075 1.65s-.617-1.65-2.66-1.65c-1.504 0-2.346.78-2.785 1.45-.191-.92-.502-1.24-.502-1.24h-2.676s.555.6.555 2.72v6.63h2.676v-5.45c0-.68.375-1.93 1.615-1.93.953 0 1.5.78 1.5 2.13v5.25h2.676v-5.48c0-.73.347-1.9 1.595-1.9.696 0 1.524.4 1.524 2.31v5.07h2.672v-5.52c0-2.57-1.135-4.04-3.115-4.04z" style="fill:#ccc;stroke:none" transform="matrix(1.05838 0 0 1.05838 -258.834 -1179.496)"/><path d="M884.13 435.32a387.367 387.367 0 0 0-85.987-10.01c-25.412.1-54.566 2.72-85.989 10.01-.463 4.76-1.21 9.8-1.99 14.38 34.592-8.59 72.47-10.07 87.98-10.07 15.505 0 53.388 1.48 87.978 10.07-.78-4.58-1.528-9.62-1.992-14.38z" style="fill:#005495;stroke:none" transform="matrix(1.05838 0 0 1.05838 -749.247 -319.163)"/><path d="M884.13 435.32a387.367 387.367 0 0 0-85.987-10.01c-25.412.1-54.566 2.72-85.989 10.01-.463 4.76-1.21 9.8-1.99 14.38 34.592-8.59 72.47-10.07 87.98-10.07 15.505 0 53.388 1.48 87.978 10.07-.78-4.58-1.528-9.62-1.992-14.38z" style="fill:#005495;stroke:none" transform="matrix(1.05838 0 0 1.05838 -749.247 -319.163)"/></svg>